<?xml version="1.0" encoding="utf-8"?>
<!-- Generator: Adobe Illustrator 16.0.4, SVG Export Plug-In . SVG Version: 6.00 Build 0)  -->
<!DOCTYPE svg PUBLIC "-//W3C//DTD SVG 1.1//EN" "http://www.w3.org/Graphics/SVG/1.1/DTD/svg11.dtd">
<svg version="1.1" id="Layer_1" xmlns="http://www.w3.org/2000/svg" xmlns:xlink="http://www.w3.org/1999/xlink" x="0px" y="0px"
	 width="150px" height="151px" viewBox="0 0 150 151" enable-background="new 0 0 150 151" xml:space="preserve">
<path fill="#FFFFFF" stroke="#FF6666" stroke-width="0.9102" stroke-linecap="round" stroke-linejoin="round" stroke-miterlimit="10" d="
	M46.5,62c-1.5-8-2-31.5,16.5-29s37.5-3.5,44.5,6.5s20,17,11.5,27s-12.5,16.5-12.5,26s-2.371,22.902-22.686,10.451
	C63.499,90.5,63,112.184,50,108.592S15.5,105,18,97.5S28,86,37,82s12.5-5.186,10.5-11.093S46.5,62,46.5,62z"/>
<path fill="#FF6666" stroke="#FFFFCC" stroke-linecap="round" stroke-linejoin="round" stroke-miterlimit="10" d="M49.5,76.75
	C52.857,78.454,57.809,80,64,80c10.217,0,18.5-3.021,18.5-6.75c0-2.796-4.609-5.727-11.25-6.75C83.262,66.5,93,71.089,93,76.75
	S83.262,87,71.25,87S49.5,82.411,49.5,76.75z"/>
<g>
	<path fill="#FFFFCC" d="M51,64c0,0,9-18,18,0"/>
	<path fill="#FF6666" d="M51,64c0,0,0.06-0.412,0.271-1.098c0.212-0.685,0.562-1.655,1.17-2.737c0.587-1.095,1.43-2.313,2.644-3.428
		c0.617-0.545,1.313-1.083,2.153-1.484c0.833-0.408,1.793-0.681,2.801-0.745c1.014-0.03,2.019,0.183,2.907,0.554
		c0.86,0.405,1.63,0.915,2.228,1.5c0.309,0.289,0.607,0.569,0.842,0.883c0.244,0.307,0.506,0.59,0.693,0.903
		c0.195,0.306,0.387,0.604,0.571,0.892c0.151,0.301,0.299,0.592,0.439,0.872c0.302,0.543,0.475,1.088,0.652,1.554
		c0.19,0.459,0.29,0.888,0.381,1.234C68.933,63.595,69,64,69,64s-0.303-0.291-0.771-0.814c-0.233-0.258-0.517-0.571-0.842-0.93
		c-0.334-0.347-0.677-0.758-1.084-1.163c-0.393-0.421-0.837-0.844-1.305-1.267c-0.224-0.227-0.478-0.415-0.727-0.62
		c-0.245-0.212-0.502-0.4-0.771-0.574c-0.521-0.383-1.09-0.636-1.642-0.87c-0.565-0.166-1.123-0.282-1.691-0.258
		c-0.569,0.029-1.148,0.176-1.732,0.396c-0.582,0.228-1.151,0.565-1.704,0.917c-1.097,0.734-2.083,1.609-2.928,2.391
		c-0.832,0.794-1.53,1.496-2.021,1.997C51.284,63.711,51,64,51,64z"/>
</g>
<g>
	<path fill="#FFFFCC" d="M102,65c0,0-18-18-18,0"/>
	<path fill="#FF6666" d="M102,64.5c0,0-0.382-0.198-1.018-0.56c-0.639-0.361-1.539-0.877-2.584-1.509
		c-1.061-0.613-2.267-1.342-3.556-2.066c-0.647-0.355-1.312-0.717-1.987-1.046c-0.676-0.342-1.36-0.626-2.041-0.882
		c-0.674-0.235-1.342-0.401-1.949-0.476c-0.602-0.039-1.109,0.019-1.555,0.203c-0.457,0.157-0.828,0.552-1.19,0.976
		c-0.335,0.46-0.617,0.986-0.858,1.502c-0.188,0.539-0.422,1.034-0.55,1.51c-0.142,0.468-0.297,0.883-0.377,1.235
		C84.145,64.087,84,64.5,84,64.5s-0.118-0.407-0.262-1.142c-0.082-0.367-0.139-0.818-0.166-1.343
		c-0.062-0.524-0.032-1.128,0.02-1.795c0.037-0.334,0.116-0.686,0.182-1.056c0.062-0.369,0.246-0.744,0.381-1.139
		c0.375-0.754,0.91-1.621,1.843-2.176c0.896-0.572,1.999-0.819,3.01-0.796c1.007,0.029,1.938,0.269,2.818,0.558
		c0.85,0.333,1.675,0.698,2.407,1.146c0.75,0.428,1.436,0.909,2.076,1.394c1.271,0.979,2.34,2.007,3.18,2.955
		c0.854,0.931,1.48,1.785,1.898,2.397C101.802,64.118,102,64.5,102,64.5z"/>
</g>
</svg>
