<?xml version="1.0" encoding="utf-8"?>
<!-- Generator: Adobe Illustrator 16.0.4, SVG Export Plug-In . SVG Version: 6.00 Build 0)  -->
<!DOCTYPE svg PUBLIC "-//W3C//DTD SVG 1.1//EN" "http://www.w3.org/Graphics/SVG/1.1/DTD/svg11.dtd">
<svg version="1.1" id="Layer_1" xmlns="http://www.w3.org/2000/svg" xmlns:xlink="http://www.w3.org/1999/xlink" x="0px" y="0px"
	 width="150px" height="151px" viewBox="0 0 150 151" enable-background="new 0 0 150 151" xml:space="preserve">
<path fill="#FFFFFF" stroke="#FF6666" stroke-width="0.9102" stroke-linecap="round" stroke-linejoin="round" stroke-miterlimit="10" d="
	M30.5,65.5c-3-6,11.414-43.5,23.957-39.5S79,28.5,93.5,29s35,9.5,24.5,28S91.5,70.994,96,88.497S120,112.5,100,120s-24.5,9-34.25,0
	S43.5,100.5,36,97.5s-9.802-11.003-5.9-19.252C34,70,34.5,70.5,32.5,68L30.5,65.5z"/>
<path fill="#FF6666" stroke="#FFFFCC" stroke-linecap="round" stroke-linejoin="round" stroke-miterlimit="10" d="M65.75,90
	c-7.525,0-12.418-5.192-12.418-10.488c0-6.289,7.721-11.387,17.245-11.387c5.348,0,10.128,1.607,13.291,4.13L85.5,73.5
	c0-9.113-8.842-16.5-19.75-16.5S46,64.387,46,73.5C46,82.612,54.842,90,65.75,90z"/>
<g>
	<path fill="#FFFFCC" d="M41.5,55c0,0,6.75-18,13.5,0"/>
	<path fill="#FF6666" d="M41.5,55c0,0-0.002-0.368,0.091-0.991c0.09-0.625,0.271-1.505,0.624-2.532
		c0.369-1.019,0.884-2.195,1.765-3.349c0.432-0.579,0.971-1.153,1.67-1.646c0.687-0.495,1.591-0.909,2.628-0.972
		c1.045-0.062,2.05,0.32,2.775,0.816c0.768,0.487,1.271,1.109,1.723,1.696c0.422,0.601,0.765,1.2,1.018,1.782
		c0.283,0.574,0.447,1.141,0.622,1.655c0.163,0.517,0.249,1.007,0.344,1.433c0.105,0.421,0.125,0.81,0.168,1.12
		C54.996,54.636,55,55,55,55s-0.251-0.274-0.627-0.766c-0.365-0.481-0.886-1.169-1.512-1.995c-0.319-0.39-0.623-0.84-0.992-1.251
		c-0.344-0.438-0.734-0.849-1.124-1.247c-0.4-0.37-0.818-0.738-1.222-0.939c-0.409-0.211-0.758-0.333-1.099-0.297
		c-0.677,0.014-1.645,0.602-2.466,1.389c-0.838,0.769-1.582,1.663-2.234,2.428c-0.658,0.797-1.207,1.461-1.591,1.926
		C41.742,54.724,41.5,55,41.5,55z"/>
</g>
<g>
	<path fill="#FFFFCC" d="M91,55c0-18-18,0-18,0"/>
	<path fill="#FF6666" d="M91,54.5c0,0-0.144-0.405-0.333-1.117c-0.08-0.362-0.237-0.778-0.377-1.239
		c-0.125-0.466-0.359-0.964-0.548-1.503c-0.24-0.517-0.523-1.043-0.858-1.504c-0.363-0.424-0.734-0.819-1.192-0.978
		c-0.447-0.182-0.954-0.243-1.558-0.201c-0.608,0.074-1.275,0.242-1.949,0.478c-1.358,0.5-2.739,1.211-4.026,1.932
		c-1.288,0.724-2.493,1.455-3.555,2.066c-1.046,0.631-1.947,1.146-2.584,1.507C73.382,54.303,73,54.5,73,54.5
		s0.197-0.383,0.613-0.997c0.416-0.613,1.041-1.468,1.896-2.399c0.839-0.949,1.908-1.976,3.181-2.955
		c0.642-0.482,1.324-0.967,2.076-1.392c0.733-0.449,1.56-0.812,2.409-1.145c0.88-0.289,1.812-0.527,2.819-0.556
		c1.009-0.02,2.113,0.223,3.007,0.797c0.931,0.555,1.465,1.421,1.84,2.175c0.341,0.781,0.474,1.524,0.562,2.193
		c0.053,0.667,0.082,1.268,0.021,1.802c-0.027,0.532-0.084,0.982-0.166,1.339C91.116,54.086,91,54.5,91,54.5z"/>
</g>
</svg>
